<svg viewBox="0 0 96 96" fill="none"
    xmlns="http://www.w3.org/2000/svg">

    <path d="M48.1226 32.1017C39.2247 32.1017 31.9827 39.3437 31.9827 48.2417C31.9827 57.1396 39.2247 64.3817 48.1226 64.3817C57.0206 64.3817 64.2626 57.1396 64.2626 48.2417C64.2547 39.3358 57.0206 32.1017 48.1226 32.1017ZM48.1226 61.7828C40.6509 61.7828 34.5736 55.7055 34.5736 48.2338C34.5736 40.762 40.6509 34.6847 48.1226 34.6847C55.5944 34.6847 61.6717 40.762 61.6717 48.2338C61.6717 55.7055 55.5865 61.7828 48.1226 61.7828Z" fill="#007F91"/>
    <path d="M76.6392 37.656L76.5125 37.7115L76.5283 37.7432L76.6551 37.6798L76.6392 37.656Z" fill="#007F91"/>
    <path d="M83.7861 44.0581C83.6672 42.9488 83.4929 41.8633 83.279 40.7937C83.0571 41.1344 82.764 41.4355 82.3995 41.6732C81.9162 41.9901 81.3536 42.1723 80.7673 42.1882C80.5296 42.1961 80.2839 42.1803 80.0462 42.1406C79.2063 41.9901 78.4695 41.5385 77.9782 40.865C77.8435 40.6907 77.7405 40.4926 77.6454 40.2866L76.5282 37.7431L74.1671 38.9475C73.5807 39.2486 72.9231 39.3437 72.2734 39.2248C71.4731 39.0901 70.7758 38.6385 70.3163 37.9729C70.0944 37.6481 69.936 37.2994 69.8488 36.9112L69.3734 34.7719L67.1786 34.7798C66.9964 34.7798 66.8141 34.764 66.6398 34.7323C66.2991 34.6689 65.9822 34.5659 65.6969 34.3995C65.3721 34.2251 65.0948 33.9875 64.865 33.7101C64.8016 33.6388 64.7382 33.5596 64.6827 33.4804C64.1123 32.6643 63.9934 31.6104 64.35 30.6834L65.1344 28.6233L63.2882 27.4189C62.9554 27.205 62.6781 26.9356 62.4563 26.6028C61.6005 25.3668 61.7986 23.6712 62.9079 22.6649L64.8095 20.9376L62.8762 19.0202C62.7098 18.8538 62.5672 18.6794 62.4563 18.5051C62.3295 18.3149 62.2344 18.109 62.1552 17.9029C61.7986 16.9521 61.8937 15.8746 62.4008 15.003C61.553 14.6227 60.6893 14.2899 59.8098 13.9809C56.1096 12.6973 52.1321 12 47.996 12C28.1162 12 12 28.1162 12 47.996C12 67.8759 28.1162 84 47.996 84C67.8759 84 84 67.86 84 47.9802C84 46.6491 83.9287 45.3496 83.7861 44.0581ZM47.996 81.2506C29.6534 81.2506 14.7336 66.3229 14.7336 47.9802C14.7336 29.6375 29.6613 14.7177 47.996 14.7177C51.9498 14.7177 55.7372 15.4071 59.2631 16.6827C59.3027 17.7286 59.6355 18.7745 60.2694 19.7095C60.5071 20.0581 60.7844 20.3671 61.0855 20.6444C58.9858 22.5461 58.5659 25.755 60.2139 28.1558C60.6576 28.7897 61.1964 29.3047 61.8065 29.7009C61.1489 31.4123 61.3232 33.4091 62.4404 35.0334C62.9396 35.7623 63.5814 36.3328 64.2945 36.7448C64.8808 37.0855 65.5147 37.3074 66.1723 37.4262C66.307 37.45 66.4259 37.4738 66.5606 37.4817C66.7666 37.5055 66.9805 37.5134 67.1945 37.5134C67.3529 38.2186 67.6382 38.9079 68.074 39.5338C68.8425 40.6431 69.928 41.4038 71.1245 41.7603C71.3463 41.8237 71.5682 41.8792 71.798 41.9267C73.0023 42.1327 74.2621 41.9742 75.4031 41.3879C75.4823 41.586 75.5854 41.792 75.6884 41.9901C75.7834 42.1565 75.8864 42.3229 75.9974 42.4813C76.9086 43.7966 78.2714 44.6127 79.7293 44.8742C80.1888 44.9534 80.6563 44.9772 81.1238 44.9455C81.2189 45.9518 81.2664 46.966 81.2664 47.9881C81.2664 66.3229 66.3467 81.2506 47.996 81.2506Z" fill="#007F91"/>
    <path d="M69.3576 48.2496C68.9931 48.2496 68.6366 48.0436 68.4623 47.695L67.147 45.0644C66.9013 44.5652 67.0994 43.971 67.5986 43.7174C68.0899 43.4718 68.692 43.6699 68.9456 44.169L70.2609 46.7996C70.5065 47.2988 70.3084 47.893 69.8092 48.1466C69.6587 48.21 69.5081 48.2496 69.3576 48.2496Z" fill="#007F91"/>
    <path d="M73.6758 56.2918C73.5095 56.2918 73.3351 56.2522 73.1767 56.1571C72.6933 55.8798 72.5349 55.2697 72.8122 54.7864L74.2859 52.2429C74.5633 51.7596 75.1734 51.6012 75.6567 51.8785C76.14 52.1558 76.2985 52.7659 76.0212 53.2492L74.5474 55.7926C74.3573 56.1096 74.0245 56.2918 73.6758 56.2918Z" fill="#007F91"/>
    <path d="M66.1409 63.423C66.1092 63.423 66.0696 63.423 66.0379 63.415L63.1141 63.114C62.5595 63.0585 62.1633 62.5672 62.2188 62.0126C62.2743 61.4579 62.7655 61.0618 63.3202 61.1172L66.2439 61.4183C66.7985 61.4738 67.1947 61.9651 67.1392 62.5197C67.0838 63.0347 66.648 63.423 66.1409 63.423Z" fill="#007F91"/>
    <path d="M62.0761 75.3397C62.0206 75.3397 61.9731 75.3397 61.9176 75.3239C61.3709 75.2367 60.9985 74.7217 61.0857 74.175L61.5531 71.275C61.6403 70.7283 62.1553 70.3559 62.702 70.4431C63.2487 70.5302 63.6211 71.0452 63.534 71.592L63.0665 74.4919C62.9873 74.9832 62.5594 75.3397 62.0761 75.3397Z" fill="#007F91"/>
    <path d="M37.0459 75.411C36.9905 75.3714 36.9429 75.3238 36.8954 75.2684L35.0096 73.0102C34.6531 72.5823 34.7085 71.9564 35.1364 71.5998C35.5643 71.2433 36.1902 71.2988 36.5468 71.7266L38.4325 73.9848C38.7891 74.4127 38.7336 75.0386 38.3058 75.3952C37.9334 75.6963 37.4104 75.6962 37.0459 75.411Z" fill="#007F91"/>
    <path d="M23.9803 63.0743C23.5762 63.0743 23.1959 62.8286 23.0453 62.4325L21.9836 59.691C21.7855 59.1759 22.039 58.5975 22.5541 58.3915C23.0691 58.1935 23.6475 58.447 23.8535 58.962L24.9152 61.7035C25.1133 62.2185 24.8598 62.7969 24.3448 63.0029C24.2259 63.0505 24.1071 63.0743 23.9803 63.0743Z" fill="#007F91"/>
    <path d="M20.3196 38.6781C19.9947 38.6781 19.6778 38.5196 19.4797 38.2265C19.1786 37.7669 19.3054 37.141 19.765 36.8399L22.2212 35.2235C22.6808 34.9224 23.3067 35.0492 23.6078 35.5087C23.9089 35.9683 23.7821 36.5943 23.3226 36.8953L20.8663 38.5117C20.6999 38.6226 20.5098 38.6781 20.3196 38.6781Z" fill="#007F91"/>
    <path d="M49.3985 26.7772C49.1449 26.7772 48.8834 26.6821 48.6933 26.484C48.305 26.0958 48.305 25.4619 48.6933 25.0657L50.7692 22.9898C51.1575 22.6015 51.7993 22.6015 52.1875 22.9898C52.5758 23.378 52.5758 24.0119 52.1875 24.4081L50.1116 26.484C49.9056 26.6821 49.652 26.7772 49.3985 26.7772Z" fill="#007F91"/>
    <path d="M41.285 23.5127C40.968 23.5127 40.659 23.3701 40.4688 23.0928L38.7653 20.6999C38.4404 20.2483 38.5514 19.6223 39.003 19.3054C39.4546 18.9884 40.0806 19.0914 40.3975 19.5431L42.1011 21.936C42.4259 22.3876 42.315 23.0135 41.8634 23.3305C41.689 23.4493 41.483 23.5127 41.285 23.5127Z" fill="#007F91"/>
    <path d="M32.791 33.6467C32.6008 33.6467 32.4027 33.5913 32.2364 33.4804C31.7768 33.1713 31.65 32.5533 31.959 32.0858L33.5913 29.6454C33.9003 29.1858 34.5183 29.0591 34.9858 29.3681C35.4453 29.6771 35.5721 30.2951 35.2631 30.7626L33.6309 33.203C33.4328 33.4883 33.1159 33.6467 32.791 33.6467Z" fill="#007F91"/>
    <path d="M25.6362 49.1291C25.454 49.1291 25.2717 49.0816 25.1053 48.9706L22.6174 47.4018C22.1499 47.1086 22.0073 46.4906 22.3084 46.0152C22.6015 45.5477 23.2196 45.4051 23.695 45.7062L26.1829 47.275C26.6504 47.5682 26.793 48.1862 26.4919 48.6616C26.2938 48.9706 25.969 49.1291 25.6362 49.1291Z" fill="#007F91"/>
    <path d="M49.1528 73.2162C48.8597 73.2162 48.5665 73.0895 48.3684 72.8359C48.0198 72.4001 48.0911 71.7742 48.5269 71.4255L50.8247 69.5952C51.2605 69.2466 51.8864 69.3179 52.235 69.7537C52.5837 70.1895 52.5124 70.8154 52.0766 71.1641L49.7788 72.9944C49.5966 73.1449 49.3747 73.2162 49.1528 73.2162Z" fill="#007F91"/>
    <path d="M35.0889 64.1994C35.0255 64.2073 34.9542 64.2153 34.8829 64.2074L31.9433 64.033C31.3887 64.0013 30.9688 63.5259 31.0005 62.9713C31.0322 62.4167 31.5076 61.9967 32.0622 62.0284L35.0018 62.2027C35.5564 62.2344 35.9764 62.7098 35.9447 63.2645C35.913 63.7478 35.5485 64.1281 35.0889 64.1994Z" fill="#007F91"/>
</svg>
